HIERARCHY
ROOT joint_Root
{
	OFFSET 0.0 0.0 0.0
	CHANNELS 6 Xposition Yposition Zposition Zrotation Xrotation Yrotation 
	JOINT Hips
	{
		OFFSET 4.5925 91.4895 -427.239
		CHANNELS 6 Xposition Yposition Zposition Zrotation Xrotation Yrotation 
		JOINT Spine
		{
			OFFSET 15.7357 0.0 0.0
			CHANNELS 6 Xposition Yposition Zposition Zrotation Xrotation Yrotation 
			JOINT Chest
			{
				OFFSET 8.98455 -0.406207 0.0
				CHANNELS 6 Xposition Yposition Zposition Zrotation Xrotation Yrotation 
				JOINT Neck
				{
					OFFSET 16.3773 0.0 0.0
					CHANNELS 6 Xposition Yposition Zposition Zrotation Xrotation Yrotation 
					JOINT Head
					{
						OFFSET 6.45672 0.0 0.0
						CHANNELS 6 Xposition Yposition Zposition Zrotation Xrotation Yrotation 
						End Site
						{
							OFFSET 0.0 0.0 0.0
						}
					}
				}
				JOINT Shoulder_L
				{
					OFFSET 12.9942 -0.242716 4.98039
					CHANNELS 6 Xposition Yposition Zposition Zrotation Xrotation Yrotation 
					JOINT UpperArm_L
					{
						OFFSET 5.34809 0.0 0.0
						CHANNELS 6 Xposition Yposition Zposition Zrotation Xrotation Yrotation 
						JOINT LowerArm_L
						{
							OFFSET 24.3286 1.87007e-05 0.0
							CHANNELS 6 Xposition Yposition Zposition Zrotation Xrotation Yrotation 
							JOINT Hand_L
							{
								OFFSET 22.2916 0.0 0.0
								CHANNELS 6 Xposition Yposition Zposition Zrotation Xrotation Yrotation 
								End Site
								{
									OFFSET 0.0 0.0 0.0
								}
							}
						}
					}
				}
				JOINT Shoulder_R
				{
					OFFSET 12.9945 -0.242716 -4.98039
					CHANNELS 6 Xposition Yposition Zposition Zrotation Xrotation Yrotation 
					JOINT UpperArm_R
					{
						OFFSET -5.34813 0.0 0.0
						CHANNELS 6 Xposition Yposition Zposition Zrotation Xrotation Yrotation 
						JOINT LowerArm_R
						{
							OFFSET -24.3289 0.000322201 0.0
							CHANNELS 6 Xposition Yposition Zposition Zrotation Xrotation Yrotation 
							JOINT Hand_R
							{
								OFFSET -22.2915 -0.000108084 0.0
								CHANNELS 6 Xposition Yposition Zposition Zrotation Xrotation Yrotation 
								End Site
								{
									OFFSET 0.0 0.0 0.0
								}
							}
						}
					}
				}
			}
		}
		JOINT UpperLeg_L
		{
			OFFSET -2.19248 -6.46944 0.0
			CHANNELS 6 Xposition Yposition Zposition Zrotation Xrotation Yrotation 
			JOINT LowerLeg_L
			{
				OFFSET 39.0811 0.0 -1.23785e-05
				CHANNELS 6 Xposition Yposition Zposition Zrotation Xrotation Yrotation 
				JOINT Foot_L
				{
					OFFSET 40.9854 0.0 -1.26872e-05
					CHANNELS 6 Xposition Yposition Zposition Zrotation Xrotation Yrotation 
					JOINT Toes_L
					{
						OFFSET 11.7543 0.0 0.0
						CHANNELS 6 Xposition Yposition Zposition Zrotation Xrotation Yrotation 
						End Site
						{
							OFFSET 0.0 0.0 0.0
						}
					}
				}
			}
		}
		JOINT UpperLeg_R
		{
			OFFSET -2.19251 6.46944 0.0
			CHANNELS 6 Xposition Yposition Zposition Zrotation Xrotation Yrotation 
			JOINT LowerLeg_R
			{
				OFFSET -39.0811 -0.00228153 -0.0401928
				CHANNELS 6 Xposition Yposition Zposition Zrotation Xrotation Yrotation 
				JOINT Foot_R
				{
					OFFSET -40.9854 0.0 0.0
					CHANNELS 6 Xposition Yposition Zposition Zrotation Xrotation Yrotation 
					JOINT Toes_R
					{
						OFFSET -11.7543 0.0 0.0
						CHANNELS 6 Xposition Yposition Zposition Zrotation Xrotation Yrotation 
						End Site
						{
							OFFSET 0.0 0.0 0.0
						}
					}
				}
			}
		}
	}
}
MOTION
Frames:	9
Frame Time:	0.0333333
0.000000 0.000000 0.000000 0.000000 0.000000 -0.000000 -153.346000 87.784900 194.547000 65.013200 83.584500 20.343200 15.735700 0.000005 -0.000001 59.612200 82.352300 -57.841500 8.984550 -0.406207 -0.000000 5.590970 -7.752770 3.920750 16.377300 -0.000001 -0.000001 -4.259230 -0.806585 2.386090 6.456720 -0.000001 -0.000000 -9.930600 3.457510 6.703380 12.994200 -0.242716 4.980390 -88.565400 -5.021910 -74.034600 5.348090 -0.000007 -0.000001 -59.043000 28.748700 -45.412200 24.328600 0.000019 0.000005 9.505960 -3.387360 -109.455000 22.291600 -0.000001 0.000005 12.922700 5.466800 -5.258360 12.994500 -0.242716 -4.980390 89.713700 1.331430 -77.859800 -5.348130 -0.000001 -0.000004 -65.882400 27.366600 25.332800 -24.328900 0.000322 -0.000009 -19.967700 -2.989630 -81.829700 -22.291500 -0.000108 -0.000004 15.056200 5.612480 -12.115500 -2.192480 -6.469440 -0.000000 -176.764000 -8.018190 5.362690 39.081100 -0.000007 -0.000012 -0.016604 0.031893 27.502500 40.985400 -0.000006 -0.000013 2.550220 4.438780 -74.173500 11.754300 -0.000000 0.000003 -0.043111 -0.272294 -27.771600 -2.192510 6.469440 -0.000001 -176.839000 2.649810 142.263000 -39.081100 -0.002282 -0.040193 0.002150 0.001423 38.526000 -40.985400 0.000008 0.000006 1.971210 -0.962944 -60.402300 -11.754300 -0.000006 -0.000006 -0.024076 -0.188902 -24.299500
0.000000 0.000000 0.000000 0.000000 0.000000 -0.000000 -148.427000 86.266700 195.636000 63.072000 83.246500 22.563300 15.735700 0.000005 -0.000001 60.972500 82.344400 -58.887400 8.984550 -0.406207 -0.000000 5.799550 -7.446920 4.547980 16.377300 -0.000001 -0.000001 -3.643770 -0.869744 2.275070 6.456720 -0.000001 -0.000000 -10.111700 3.579030 5.254960 12.994200 -0.242716 4.980390 -89.364600 -2.230560 -74.094500 5.348090 -0.000007 -0.000001 -64.290500 30.199400 -34.910800 24.328600 0.000019 0.000005 13.679300 -2.491280 -100.126000 22.291600 -0.000001 0.000005 15.492000 5.445670 -4.491760 12.994500 -0.242716 -4.980390 89.068700 4.398910 -78.033300 -5.348130 -0.000001 -0.000004 -65.654900 28.414000 20.070000 -24.328900 0.000322 -0.000009 -20.947100 -2.647370 -83.118600 -22.291500 -0.000108 -0.000004 15.682400 5.622240 -12.774900 -2.192480 -6.469440 -0.000000 -175.772000 -7.354040 6.368490 39.081100 -0.000007 -0.000012 -0.014384 0.022456 32.643400 40.985400 -0.000006 -0.000013 1.730690 4.265360 -74.060700 11.754300 -0.000000 0.000003 -0.093663 -0.428569 -34.434100 -2.192510 6.469440 -0.000001 -173.567000 7.506450 140.270000 -39.081100 -0.002282 -0.040193 0.014983 -0.012086 44.110300 -40.985400 0.000008 0.000006 6.748690 -1.372600 -58.290300 -11.754300 -0.000006 -0.000006 -0.015385 -0.140229 -22.295000
0.000000 0.000000 0.000000 0.000000 0.000000 -0.000000 -142.607000 84.728600 196.826000 58.160100 83.541000 28.867700 15.735700 0.000005 -0.000001 61.941800 82.369100 -59.369600 8.984550 -0.406207 -0.000000 5.905800 -7.202220 5.515950 16.377300 -0.000001 -0.000001 -2.933140 -0.908340 1.771850 6.456720 -0.000001 -0.000000 -8.355890 3.277060 3.062860 12.994200 -0.242716 4.980390 -90.364200 1.273260 -74.036900 5.348090 -0.000007 -0.000001 -68.001900 30.863200 -23.055900 24.328600 0.000019 0.000005 12.457000 1.052910 -85.221800 22.291600 -0.000001 0.000005 17.673600 5.425550 -3.791180 12.994500 -0.242716 -4.980390 88.146400 8.457180 -77.591300 -5.348130 -0.000001 -0.000004 -64.121500 32.301200 13.488200 -24.328900 0.000322 -0.000009 -21.644900 -1.632080 -85.893800 -22.291500 -0.000108 -0.000004 15.632500 5.626870 -13.104800 -2.192480 -6.469440 -0.000000 -174.364000 -7.159420 6.732760 39.081100 -0.000007 -0.000012 0.007950 -0.009207 40.803400 40.985400 -0.000006 -0.000013 1.249770 3.883770 -69.226200 11.754300 -0.000000 0.000003 -0.242334 -0.711203 -47.409500 -2.192510 6.469440 -0.000001 -173.284000 8.660650 141.840000 -39.081100 -0.002282 -0.040193 0.054508 -0.039205 52.596500 -40.985400 0.000008 0.000006 8.296510 -1.905060 -67.713900 -11.754300 -0.000006 -0.000006 -0.006099 -0.071728 -19.492400
0.000000 0.000000 0.000000 0.000000 0.000000 -0.000000 -136.947000 83.778500 198.056000 59.604400 82.324300 30.024500 15.735700 0.000005 -0.000001 68.733800 82.227000 -65.765000 8.984550 -0.406207 -0.000000 6.900450 -5.642350 6.275560 16.377300 -0.000001 -0.000001 -2.246860 -0.864237 1.020460 6.456720 -0.000001 -0.000000 -6.868510 2.878580 1.576220 12.994200 -0.242716 4.980390 -90.852800 2.938280 -73.807400 5.348090 -0.000007 -0.000001 -67.344000 34.178800 -16.092100 24.328600 0.000019 0.000005 8.484290 4.460910 -62.466000 22.291600 -0.000001 0.000005 17.778900 5.466190 -5.246080 12.994500 -0.242716 -4.980390 87.153900 12.422200 -76.987200 -5.348130 -0.000001 -0.000004 -60.929200 37.904400 2.637160 -24.328900 0.000322 -0.000009 -20.604700 -0.354897 -89.057000 -22.291500 -0.000108 -0.000004 16.323500 5.626050 -13.046400 -2.192480 -6.469440 -0.000000 -173.050000 -8.303970 4.495340 39.081100 -0.000007 -0.000012 0.077827 -0.059672 52.519700 40.985400 -0.000006 -0.000013 2.959020 2.603750 -56.188400 11.754300 -0.000000 0.000003 -0.351970 -0.852247 -54.657700 -2.192510 6.469440 -0.000001 -173.368000 7.215150 146.590000 -39.081100 -0.002282 -0.040193 0.073867 -0.045306 57.329200 -40.985400 0.000008 0.000006 7.957130 -3.264740 -73.934100 -11.754300 -0.000006 -0.000006 -0.001684 -0.024687 -17.576900
0.000000 0.000000 0.000000 0.000000 0.000000 -0.000000 -132.139000 83.383800 199.151000 60.865000 81.138000 30.562900 15.735700 0.000005 -0.000001 74.092900 82.091800 -70.800200 8.984550 -0.406207 -0.000000 7.594290 -4.322940 6.868300 16.377300 -0.000001 -0.000001 -1.603880 -0.703459 1.005600 6.456720 -0.000001 -0.000000 -5.635060 3.306140 -0.123731 12.994200 -0.242716 4.980390 -90.965800 3.430560 -74.266100 5.348090 -0.000007 -0.000001 -66.268600 39.344500 -7.388830 24.328600 0.000019 0.000005 12.478500 11.134100 -48.903000 22.291600 -0.000001 0.000005 14.661100 5.497120 -6.436450 12.994500 -0.242716 -4.980390 86.928300 13.845000 -77.360700 -5.348130 -0.000001 -0.000004 -56.425800 43.482100 -12.854000 -24.328900 0.000322 -0.000009 -18.252800 1.025820 -93.109700 -22.291500 -0.000108 -0.000004 16.679400 5.622280 -12.776300 -2.192480 -6.469440 -0.000000 -172.777000 -7.544580 -1.881100 39.081100 -0.000007 -0.000012 0.120610 -0.056087 65.058200 40.985400 -0.000006 -0.000013 1.433610 -0.353644 -39.667500 11.754300 -0.000000 0.000003 -0.075323 -0.378666 -32.278500 -2.192510 6.469440 -0.000001 -173.233000 7.668720 151.726000 -39.081100 -0.002282 -0.040193 0.089152 -0.052117 58.767100 -40.985400 0.000008 0.000006 8.268260 -2.790590 -78.660400 -11.754300 -0.000006 -0.000006 -0.158272 -0.203518 -17.280100
0.000000 0.000000 0.000000 0.000000 0.000000 -0.000000 -128.085000 83.464900 199.779000 66.483100 79.515500 25.794900 15.735700 0.000005 -0.000001 80.492400 81.948000 -77.333000 8.984550 -0.406207 -0.000000 8.204060 -2.635980 6.502660 16.377300 -0.000001 -0.000001 -2.087260 -0.313576 1.675390 6.456720 -0.000001 -0.000000 -5.119030 3.798120 -0.832032 12.994200 -0.242716 4.980390 -90.829900 2.892470 -73.980200 5.348090 -0.000007 -0.000001 -67.966900 43.891400 6.033940 24.328600 0.000019 0.000005 15.957300 13.298300 -51.194000 22.291600 -0.000001 0.000005 13.338000 5.540690 -8.275270 12.994500 -0.242716 -4.980390 87.553300 12.538500 -78.866300 -5.348130 -0.000001 -0.000004 -51.234500 45.957600 -30.053900 -24.328900 0.000322 -0.000009 -14.180400 2.167210 -98.518500 -22.291500 -0.000108 -0.000004 15.981000 5.619190 -12.564200 -2.192480 -6.469440 -0.000000 -173.784000 -7.078440 -9.846170 39.081100 -0.000007 -0.000012 0.147760 -0.039309 75.099900 40.985400 -0.000006 -0.000013 -0.620493 -4.291250 -30.370300 11.754300 -0.000000 0.000003 -0.008673 -0.093448 -20.382800 -2.192510 6.469440 -0.000001 -174.093000 8.414370 156.100000 -39.081100 -0.002282 -0.040193 0.096025 -0.057060 58.418300 -40.985400 0.000008 0.000006 8.785820 -0.647992 -81.519100 -11.754300 -0.000006 -0.000006 -0.532802 -0.654233 -17.437400
0.000000 0.000000 0.000000 0.000000 0.000000 -0.000000 -123.988000 84.888200 200.157000 72.363800 77.852100 19.430000 15.735700 0.000005 -0.000001 91.156500 82.276400 -88.567600 8.984550 -0.406207 -0.000000 7.676450 0.308612 5.151660 16.377300 -0.000001 -0.000001 -2.124890 -0.503201 2.443990 6.456720 -0.000001 -0.000000 -5.935240 2.063030 0.467811 12.994200 -0.242716 4.980390 -90.275900 0.873231 -72.454300 5.348090 -0.000007 -0.000001 -71.055600 49.363300 17.809200 24.328600 0.000019 0.000005 10.224100 7.116570 -55.521000 22.291600 -0.000001 0.000005 12.330000 5.558940 -9.134990 12.994500 -0.242716 -4.980390 88.231000 9.978350 -79.894300 -5.348130 -0.000001 -0.000004 -48.949500 44.826000 -41.457400 -24.328900 0.000322 -0.000009 -10.881200 2.999260 -105.227000 -22.291500 -0.000108 -0.000004 16.249400 5.613130 -12.161700 -2.192480 -6.469440 -0.000000 -175.941000 -7.093230 -16.570500 39.081100 -0.000007 -0.000012 0.049278 -0.008071 80.689300 40.985400 -0.000006 -0.000013 3.981540 -2.448880 -43.048900 11.754300 -0.000000 0.000003 -0.010255 -0.105547 -20.877400 -2.192510 6.469440 -0.000001 -175.610000 8.529720 161.148000 -39.081100 -0.002282 -0.040193 0.073314 -0.051561 53.656900 -40.985400 0.000008 0.000006 8.966480 1.895210 -81.775800 -11.754300 -0.000006 -0.000006 -0.810779 -0.987717 -17.897200
0.000000 0.000000 0.000000 0.000000 0.000000 -0.000000 -119.889000 86.960000 200.253000 77.741900 77.385800 13.658600 15.735700 0.000005 -0.000001 100.842000 82.346100 -99.101900 8.984550 -0.406207 -0.000000 7.234160 2.860820 3.295630 16.377300 -0.000001 -0.000001 -2.311670 -0.979192 3.007820 6.456720 -0.000001 -0.000000 -6.405990 -0.235000 1.726870 12.994200 -0.242716 4.980390 -89.495100 -1.492440 -71.313400 5.348090 -0.000007 -0.000001 -73.933000 51.088800 27.046600 24.328600 0.000019 0.000005 10.532400 5.926970 -60.949900 22.291600 -0.000001 0.000005 10.855200 5.576260 -10.013600 12.994500 -0.242716 -4.980390 88.690000 7.474260 -80.030300 -5.348130 -0.000001 -0.000004 -47.880300 42.330800 -48.193500 -24.328900 0.000322 -0.000009 -10.954900 4.254320 -110.969000 -22.291500 -0.000108 -0.000004 16.738400 5.604640 -11.624100 -2.192480 -6.469440 -0.000000 -178.456000 -5.285830 -22.305700 39.081100 -0.000007 -0.000012 -0.008741 0.001501 80.301100 40.985400 -0.000006 -0.000013 4.666450 -3.897780 -48.941600 11.754300 -0.000000 0.000003 -0.009271 -0.098118 -20.573700 -2.192510 6.469440 -0.000001 -177.896000 9.114040 167.334000 -39.081100 -0.002282 -0.040193 0.054809 -0.049635 46.083200 -40.985400 0.000008 0.000006 8.464880 4.121260 -79.698500 -11.754300 -0.000006 -0.000006 -1.340270 -1.606520 -18.800100
0.000000 0.000000 0.000000 0.000000 0.000000 -0.000000 -115.662000 89.191000 200.126000 84.009500 77.746000 6.413730 15.735700 0.000005 -0.000001 107.553000 82.545900 -106.771000 8.984550 -0.406207 -0.000000 6.433010 4.473470 1.310900 16.377300 -0.000001 -0.000001 -2.356420 -1.435660 2.950720 6.456720 -0.000001 -0.000000 -6.732530 -2.212920 2.308000 12.994200 -0.242716 4.980390 -88.689000 -3.689010 -70.421400 5.348090 -0.000007 -0.000001 -75.594000 50.561500 33.651300 24.328600 0.000019 0.000005 10.866800 4.965820 -65.730900 22.291600 -0.000001 0.000005 8.968660 5.584850 -10.475400 12.994500 -0.242716 -4.980390 89.125200 5.085360 -80.226000 -5.348130 -0.000001 -0.000004 -48.302600 39.768000 -50.988100 -24.328900 0.000322 -0.000009 -10.424300 5.021230 -115.444000 -22.291500 -0.000108 -0.000004 16.427800 5.586930 -10.587100 -2.192480 -6.469440 -0.000000 178.842000 -2.084850 -26.670000 39.081100 -0.000007 -0.000012 -0.048571 0.013133 74.876700 40.985400 -0.000006 -0.000013 5.493960 -6.242710 -53.481500 11.754300 -0.000000 0.000003 -0.008408 -0.091341 -20.296700 -2.192510 6.469440 -0.000001 179.606000 8.986370 173.042000 -39.081100 -0.002282 -0.040193 0.035943 -0.042335 37.648000 -40.985400 0.000008 0.000006 7.243620 5.106360 -75.270000 -11.754300 -0.000006 -0.000006 -0.472473 -0.588764 -20.050300
